<svg xmlns="http://www.w3.org/2000/svg" viewBox="0 0 512 512">
  <rect width="512" height="512" rx="96" fill="#281525"/>
  <circle cx="150" cy="134" r="82" fill="#fb7185" opacity=".25"/>
  <circle cx="372" cy="368" r="92" fill="#5eead4" opacity=".2"/>
  <path d="M142 291c0-80 65-145 145-145h36c52 0 94 42 94 94s-42 94-94 94H208c-36 0-66-29-66-43z" fill="#f9a8d4"/>
  <path d="M302 153l25-72 35 77 54-55-12 103" fill="#f9a8d4"/>
  <path d="M169 273c-59-20-79-64-39-105" fill="none" stroke="#f9a8d4" stroke-width="42" stroke-linecap="round"/>
  <circle cx="350" cy="229" r="10" fill="#111827"/>
  <circle cx="384" cy="229" r="10" fill="#111827"/>
  <path d="M364 253l48-20M364 267l48 18" stroke="#111827" stroke-width="8" stroke-linecap="round"/>
  <ellipse cx="140" cy="385" rx="53" ry="34" fill="#cbd5e1"/>
  <circle cx="185" cy="379" r="22" fill="#cbd5e1"/>
  <circle cx="190" cy="373" r="4" fill="#111827"/>
  <path d="M97 390c-34 16-44 39-25 55" fill="none" stroke="#94a3b8" stroke-width="12" stroke-linecap="round"/>
</svg>
